<?xml version="1.0" encoding="utf-8"?>
<!-- Generator: Adobe Illustrator 20.1.0, SVG Export Plug-In . SVG Version: 6.00 Build 0)  -->
<svg version="1.1" id="图层_1" xmlns="http://www.w3.org/2000/svg" xmlns:xlink="http://www.w3.org/1999/xlink" x="0px" y="0px"
	 viewBox="0 0 128 128" style="enable-background:new 0 0 128 128;" xml:space="preserve">
<style type="text/css">
	.st0{fill:#9BBFA4;}
</style>
<g>
	<path class="st0" d="M114.7,26.1c0,0-34.9,57.6-59.2,71.8c-5.6,3.3-11.2,3.9-14.3,3.9s-5.8-0.5-8.3-1.4c-2.5-1-4.5-2.3-6.2-4
		s-3-3.8-4-6.2s-1.4-5-1.4-7.9V38.7V26.1H34v50.3c0,2.8,0.3,5.1,0.9,6.8c0.6,1.7,1.4,3,2.6,3.9c1.1,0.9,2.5,1.5,4.1,1.8
		c1.6,0.3,5.3-0.1,9-2C67.7,78.2,114.7,26.1,114.7,26.1z"/>
	<rect x="21.3" y="26.1" class="st0" width="27.5" height="2.9"/>
</g>
</svg>
